<svg width="33" height="32" viewBox="0 0 33 32" fill="none" xmlns="http://www.w3.org/2000/svg">
<path d="M10.5 29C11.6046 29 12.5 28.1046 12.5 27C12.5 25.8954 11.6046 25 10.5 25C9.39543 25 8.5 25.8954 8.5 27C8.5 28.1046 9.39543 29 10.5 29Z" fill="#191C1F"/>
<path d="M23.5 29C24.6046 29 25.5 28.1046 25.5 27C25.5 25.8954 24.6046 25 23.5 25C22.3954 25 21.5 25.8954 21.5 27C21.5 28.1046 22.3954 29 23.5 29Z" fill="#191C1F"/>
<path d="M5.7875 9H28.2125L24.9125 20.55C24.7948 20.9692 24.5426 21.3381 24.1948 21.6001C23.8471 21.862 23.4229 22.0025 22.9875 22H11.0125C10.5771 22.0025 10.1529 21.862 9.80515 21.6001C9.45738 21.3381 9.20524 20.9692 9.0875 20.55L4.5625 4.725C4.5027 4.51594 4.3764 4.33207 4.20271 4.20125C4.02903 4.07042 3.81744 3.99977 3.6 4H1.5" stroke="#191C1F" stroke-width="2" stroke-linecap="round" stroke-linejoin="round"/>
</svg>
